# xmcd CD database file generated by OrangeCD 5.2
#
# Track frame offsets:
#	150
#	10645
#	23565
#	38110
#	52980
#	78330
#	96512
#	116365
#	133642
#	150725
#	179540
#
# Disc length: 2698 seconds
#
# Revision: 0
# Processed by: cddbd v1.5.2PL0 Copyright (c) Steve Scherf et al.
# Submitted via: OrangeCD 5.2
#
DISCID=7d0a880b
DTITLE=Al Green - The Best Of Al Green The Millennium Collection
DYEAR=2006
DGENRE=R&B - Al Green
TTITLE0=Back Up Train   Featuring The Soul Mates
TTITLE1=Tired Of Being Alone
TTITLE2=I'm Still In Love With You
TTITLE3=You Ought To Be With Me
TTITLE4=You've Got A Friend
TTITLE5=He Ain't Heavy He's My Brother
TTITLE6=Everythings Gonna Be Alright
TTITLE7=Put A Little Love In Your Heart   Featuring Annie Lennox
TTITLE8=As Long As We're Together
TTITLE9=The Message Is Love   With Arther Baker and The Backbeat Disciples
TTITLE10=Put It On Paper   Featuring Ann Nesby
EXTD=
EXTT0=
EXTT1=
EXTT2=
EXTT3=
EXTT4=
EXTT5=
EXTT6=
EXTT7=
EXTT8=
EXTT9=
EXTT10=
PLAYORDER=
